<?xml version="1.0" standalone="no"?>
<!DOCTYPE svg PUBLIC "-//W3C//DTD SVG 20010904//EN"
 "http://www.w3.org/TR/2001/REC-SVG-20010904/DTD/svg10.dtd">
<svg version="1.0" xmlns="http://www.w3.org/2000/svg"
 width="279.000000pt" height="279.000000pt" viewBox="0 0 279.000000 279.000000"
 preserveAspectRatio="xMidYMid meet">
<metadata>
Created by potrace 1.11, written by Peter Selinger 2001-2013
</metadata>
<g transform="translate(0.000000,279.000000) scale(0.100000,-0.100000)"
fill="#000000" stroke="none">
<path d="M1250 2769 c-260 -71 -455 -170 -640 -324 -244 -204 -419 -499 -469
-790 -6 -33 -13 -76 -16 -95 -9 -50 -9 -223 0 -300 29 -260 157 -551 325 -733
81 -89 98 -106 164 -161 347 -293 802 -413 1285 -341 66 10 220 51 293 79 144
54 335 164 433 249 l39 34 -29 36 c-28 33 -55 47 -55 29 0 -12 -141 -112 -225
-160 -123 -71 -329 -145 -464 -167 -184 -29 -404 -26 -566 10 -155 33 -206 50
-341 115 -151 71 -266 152 -385 270 -248 247 -376 542 -381 875 -6 496 297
952 784 1179 86 40 233 90 298 101 42 7 42 7 36 44 -3 20 -6 42 -6 49 0 14
-30 14 -80 1z"/>
<path d="M1645 2363 c-259 -25 -463 -115 -634 -281 -182 -177 -275 -404 -266
-652 12 -338 202 -616 530 -778 309 -152 694 -127 1002 66 24 15 43 29 43 32
0 3 -11 18 -24 34 l-23 30 -29 -21 c-79 -56 -220 -115 -330 -138 -425 -90
-870 127 -1027 500 -31 73 -57 172 -57 214 0 30 1 31 44 31 24 0 92 14 152 31
122 35 190 35 268 0 56 -26 184 -69 232 -78 88 -17 225 -6 349 27 128 35 140
37 198 39 37 1 37 1 37 44 l0 43 -70 -7 c-38 -4 -120 -22 -182 -40 -87 -25
-133 -32 -198 -33 -105 0 -133 5 -240 44 -182 68 -201 72 -275 67 -38 -3 -100
-15 -136 -26 -36 -12 -94 -25 -128 -29 l-61 -9 5 46 c11 88 14 106 31 161 81
271 339 509 627 575 103 24 128 26 227 27 136 0 225 -16 350 -62 30 -11 56
-20 57 -20 10 0 33 64 26 71 -15 15 -173 65 -243 78 -67 11 -203 19 -255 14z"/>
</g>
</svg>
